<!--?xml version="1.0" standalone="no"?-->
              <svg id="sw-js-blob-svg" viewBox="0 0 100 100" xmlns="http://www.w3.org/2000/svg" version="1.1">
                    <defs> 
                        <linearGradient id="sw-gradient" x1="0" x2="1" y1="1" y2="0">
                            <stop id="stop1" stop-color="rgba(255, 0, 0, 1)" offset="0%"></stop>
                            <stop id="stop2" stop-color="rgba(0, 17.244, 101.388, 1)" offset="100%"></stop>
                        </linearGradient>
                    </defs>
                <path fill="url(#sw-gradient)" d="M23.2,-39.9C30,-36.3,35.3,-29.9,37.6,-22.8C39.8,-15.7,39,-7.8,39.4,0.2C39.8,8.3,41.4,16.5,38.7,22.8C35.9,29.1,28.9,33.4,21.7,35.7C14.5,37.9,7.3,38.1,0.4,37.4C-6.4,36.6,-12.8,35,-19.5,32.5C-26.2,30,-33.2,26.6,-36.4,21C-39.6,15.4,-39.1,7.7,-38.3,0.5C-37.5,-6.8,-36.4,-13.6,-33.8,-20.3C-31.3,-27,-27.3,-33.7,-21.4,-37.8C-15.5,-41.9,-7.8,-43.5,0.2,-43.8C8.2,-44.2,16.4,-43.4,23.2,-39.9Z" width="100%" height="100%" transform="translate(50 50)" stroke-width="0" style="transition: all 0.3s ease 0s;" stroke="url(#sw-gradient)"></path>
              </svg>